<?xml version="1.0" encoding="UTF-8"?>
<svg width="23px" height="44px" viewBox="0 0 23 44" version="1.1" xmlns="http://www.w3.org/2000/svg" xmlns:xlink="http://www.w3.org/1999/xlink">
    <title>GoogleMaps_Button</title>
    <g id="Admin-login" stroke="none" stroke-width="1" fill="none" fill-rule="evenodd">
        <g id="Add-Courier-Agent" transform="translate(-527.000000, -253.000000)" fill-rule="nonzero">
            <g id="Fields" transform="translate(520.000000, 149.000000)">
                <g id="GoogleMaps_Button" transform="translate(7.000000, 104.000000)">
                    <path d="M6.17047102,27.6915526 C7.15621022,28.9243769 8.1601557,30.4745103 8.68553649,31.4108325 C9.32535666,32.6280514 9.59064795,33.4499342 10.0666117,34.9220408 C10.3449075,35.7283182 10.6101988,35.9728024 11.1667903,35.9728024 C11.7753998,35.9728024 12.0536955,35.5618609 12.2669689,34.9220408 C12.711722,33.5409655 13.0550401,32.4902039 13.5986272,31.4888594 C15.6949485,27.5354989 19.1125246,24.7265323 21.0371869,20.8772077 C21.0371869,20.8772077 22.3038228,18.5259986 22.3038228,15.2332655 C22.3038228,12.1642094 21.0553932,10.0314755 21.0553932,10.0314755 L6.1782737,27.7175616 L6.17047102,27.6915526 Z" id="Path" fill="#34A853"></path>
                    <path d="M1.1247347,20.4610645 C2.3237473,23.1920043 4.60993401,25.5848277 6.17047102,27.6915526 L14.4413171,17.8861785 C14.4413171,17.8861785 13.2735153,19.4155047 11.1641894,19.4155047 C8.81298035,19.4155047 6.89872162,17.5428603 6.89872162,15.1760459 C6.89872162,13.5478856 7.86885546,12.4190971 7.86885546,12.4190971 C1.78276113,13.3242086 2.12087748,14.7989161 1.10652843,20.4558627 L1.1247347,20.4610645 Z" id="Path" fill="#FBBC04"></path>
                    <path d="M14.5453529,4.53578437 C17.3023017,5.42268957 19.6431072,7.29273308 21.0475905,10.0236728 L14.4413171,17.9043847 C14.4413171,17.9043847 15.411451,16.7703945 15.411451,15.147436 C15.411451,12.7312045 13.3723493,10.9079771 11.1719921,10.9079771 C9.08347343,10.9079771 7.89486441,12.4190971 7.89486441,12.4190971 C8.40203893,11.2642998 13.6428424,4.92851952 14.5531556,4.53838527 L14.5453529,4.53578437 Z" id="Path" fill="#4285F4"></path>
                    <path d="M2.6332538,8.00277742 C4.27701945,6.04690437 7.15881112,4.02340806 11.1381805,4.02340806 C13.0602419,4.02340806 14.519344,4.53318348 14.519344,4.53318348 L7.88706172,12.4138954 C7.43970778,12.1712319 3.07540595,8.77264234 2.6332538,7.99237384 L2.6332538,8.00277742 Z" id="Path" fill="#1A73E8"></path>
                    <path d="M1.1247347,20.4610645 C1.1247347,20.4610645 0.0401614765,18.3075235 0.0401614765,15.2072566 C0.0401614765,12.2682452 1.18975707,9.69335918 2.64105649,8.02878637 L7.89486441,12.4503079 L1.13253738,20.4610645 L1.1247347,20.4610645 Z" id="Path" fill="#EA4335"></path>
                </g>
            </g>
        </g>
    </g>
</svg>